<?xml version="1.0" encoding="utf-8" standalone="no"?>
<!DOCTYPE svg PUBLIC "-//W3C//DTD SVG 1.1//EN"
  "http://www.w3.org/Graphics/SVG/1.1/DTD/svg11.dtd">
<svg xmlns:xlink="http://www.w3.org/1999/xlink" width="569.482537pt" height="395.877656pt" viewBox="0 0 569.482537 395.877656" xmlns="http://www.w3.org/2000/svg" version="1.1">
 <metadata>
  <rdf:RDF xmlns:dc="http://purl.org/dc/elements/1.1/" xmlns:cc="http://creativecommons.org/ns#" xmlns:rdf="http://www.w3.org/1999/02/22-rdf-syntax-ns#">
   <cc:Work>
    <dc:type rdf:resource="http://purl.org/dc/dcmitype/StillImage"/>
    <dc:format>image/svg+xml</dc:format>
    <dc:creator>
     <cc:Agent>
      <dc:title>Matplotlib v3.11.0, https://matplotlib.org/</dc:title>
     </cc:Agent>
    </dc:creator>
   </cc:Work>
  </rdf:RDF>
 </metadata>
 <defs>
  <style type="text/css">*{stroke-linejoin: round; stroke-linecap: butt}</style>
 </defs>
 <g id="figure_1">
  <g id="patch_1">
   <path d="M 0 395.877656
L 569.482537 395.877656
L 569.482537 0
L 0 0
z
" style="fill: #ffffff"/>
  </g>
  <g id="axes_1">
   <g id="patch_2">
    <path d="M 320.789238 242.867762
C 325.30998 222.298049 325.159546 200.973834 320.349047 180.469949
C 315.538548 159.966064 306.189393 140.799998 292.992035 124.3872
C 279.794677 107.974402 263.082198 94.729108 244.088845 85.629506
C 225.095493 76.529904 204.300631 71.805656 183.24 71.805656
L 183.24 130.955096
C 195.455166 130.955096 207.516186 133.69516 218.53233 138.972929
C 229.548475 144.250698 239.241713 151.932969 246.89618 161.452392
C 254.550648 170.971815 259.973158 182.088133 262.763247 193.980386
C 265.553337 205.872639 265.640588 218.240684 263.018558 230.171117
z
" style="fill: #2563eb; stroke: #ffffff; stroke-width: 3; stroke-linejoin: miter"/>
   </g>
   <g id="patch_3">
    <path d="M 191.183748 353.245441
C 221.866786 351.511978 251.154978 339.781912 274.551885 319.856087
C 297.948792 299.930263 314.192509 272.883373 320.789238 242.867762
L 263.018558 230.171117
C 259.192455 247.580172 249.771099 263.267368 236.200893 274.824346
C 222.630687 286.381325 205.643536 293.184763 187.847374 294.190171
z
" style="fill: #dc2626; stroke: #ffffff; stroke-width: 3; stroke-linejoin: miter"/>
   </g>
   <g id="patch_4">
    <path d="M 57.102976 275.272338
C 69.364125 299.964487 88.610016 320.521188 112.44195 334.38037
C 136.273884 348.239552 163.658852 354.800482 191.183748 353.245441
L 187.847374 294.190171
C 171.882934 295.092095 155.999653 291.286756 142.177131 283.24843
C 128.354609 275.210105 117.191992 263.287218 110.080526 248.965771
z
" style="fill: #7c3aed; stroke: #ffffff; stroke-width: 3; stroke-linejoin: miter"/>
   </g>
   <g id="patch_5">
    <path d="M 183.24 71.805656
C 159.268696 71.805656 135.689652 77.925964 114.744558 89.584714
C 93.799463 101.243464 76.173799 118.059095 63.543259 138.432923
C 50.912719 158.806752 43.690669 182.071993 42.563718 206.016793
C 41.436767 229.961592 46.441798 253.802295 57.102976 275.272338
L 110.080526 248.965771
C 103.897043 236.513147 100.994125 222.685539 101.647756 208.797555
C 102.301388 194.909572 106.490177 181.415732 113.81589 169.598911
C 121.141604 157.782091 131.364489 148.029025 143.512643 141.26695
C 155.660798 134.504875 169.336643 130.955096 183.24 130.955096
z
" style="fill: #d97706; stroke: #ffffff; stroke-width: 3; stroke-linejoin: miter"/>
   </g>
   <g id="matplotlib.axis_1"/>
   <g id="matplotlib.axis_2"/>
   <g id="text_1">
    <text style="font-weight: 700; font-size: 28px; font-family: 'DejaVu Sans'; text-anchor: middle" x="183.24" y="208.644534" transform="rotate(-0 183.24 208.644534)">334</text>
   </g>
   <g id="text_2">
    <text style="font-size: 11px; font-family: 'DejaVu Sans'; text-anchor: middle; fill: #6b7280" x="183.24" y="232.394918" transform="rotate(-0 183.24 232.394918)">resources</text>
   </g>
   <g id="text_3">
    <text style="font-size: 10px; font-family: 'DejaVu Sans'; text-anchor: start; fill: #6b7280" x="17.05824" y="60.539096" transform="rotate(-0 17.05824 60.539096)">Higher-level balance across 4 configured project areas.</text>
   </g>
   <g id="text_4">
    <text style="font-weight: 700; font-size: 15px; font-family: 'DejaVu Sans'; text-anchor: start; fill: #111827" x="7.2" y="18.597656" transform="rotate(-0 7.2 18.597656)">Resource Mix by Group</text>
   </g>
   <g id="legend_1">
    <g id="patch_6">
     <path d="M 375.3216 192.734531
L 395.3216 192.734531
L 395.3216 185.734531
L 375.3216 185.734531
z
" style="fill: #2563eb; stroke: #ffffff; stroke-width: 3; stroke-linejoin: miter"/>
    </g>
    <g id="text_5">
     <text style="font-size: 10px; font-family: 'DejaVu Sans'; text-anchor: start" x="403.3216" y="192.734531" transform="rotate(-0 403.3216 192.734531)">Building &amp; Open Source (95)</text>
    </g>
    <g id="patch_7">
     <path d="M 375.3216 207.735312
L 395.3216 207.735312
L 395.3216 200.735312
L 375.3216 200.735312
z
" style="fill: #dc2626; stroke: #ffffff; stroke-width: 3; stroke-linejoin: miter"/>
    </g>
    <g id="text_6">
     <text style="font-size: 10px; font-family: 'DejaVu Sans'; text-anchor: start" x="403.3216" y="207.735312" transform="rotate(-0 403.3216 207.735312)">Careers &amp; Perks (69)</text>
    </g>
    <g id="patch_8">
     <path d="M 375.3216 222.736094
L 395.3216 222.736094
L 395.3216 215.736094
L 375.3216 215.736094
z
" style="fill: #7c3aed; stroke: #ffffff; stroke-width: 3; stroke-linejoin: miter"/>
    </g>
    <g id="text_7">
     <text style="font-size: 10px; font-family: 'DejaVu Sans'; text-anchor: start" x="403.3216" y="222.736094" transform="rotate(-0 403.3216 222.736094)">Experience (62)</text>
    </g>
    <g id="patch_9">
     <path d="M 375.3216 237.736875
L 395.3216 237.736875
L 395.3216 230.736875
L 375.3216 230.736875
z
" style="fill: #d97706; stroke: #ffffff; stroke-width: 3; stroke-linejoin: miter"/>
    </g>
    <g id="text_8">
     <text style="font-size: 10px; font-family: 'DejaVu Sans'; text-anchor: start" x="403.3216" y="237.736875" transform="rotate(-0 403.3216 237.736875)">Learning &amp; Development (108)</text>
    </g>
   </g>
  </g>
 </g>
</svg>
