<svg xmlns="http://www.w3.org/2000/svg" width="900" height="190" viewBox="0 0 900 190" role="img" aria-labelledby="title desc">
  <title id="title">CS Resource Hub data pipeline</title>
  <desc id="desc">Resource JSON is validated and used to generate README, CSV, and site-ready JSON exports. Failed validation checks block output.</desc>
  <rect width="900" height="190" rx="18" fill="#0D1117"/>
  <g font-family="Arial, Helvetica, sans-serif" font-size="18" font-weight="600" text-anchor="middle">
    <rect x="48" y="24" width="128" height="50" rx="10" fill="#161B22" stroke="#30363D" stroke-width="2"/>
    <text x="112" y="47" fill="#F0F6FC">Add Resource</text>
    <text x="112" y="63" fill="#F0F6FC" font-size="10">JSON in data/</text>
    <path d="M176 49H202" stroke="#3B82F6" stroke-width="4"/>
    <path d="M202 37L222 49L202 61Z" fill="#3B82F6"/>

    <rect x="224" y="24" width="144" height="50" rx="10" fill="#111C30" stroke="#3B82F6" stroke-width="2"/>
    <text x="296" y="47" fill="#F0F6FC">Validate</text>
    <text x="296" y="63" fill="#F0F6FC" font-size="10">schema + category</text>
    <path d="M368 49H394" stroke="#3B82F6" stroke-width="4"/>
    <path d="M394 37L414 49L394 61Z" fill="#3B82F6"/>

    <rect x="416" y="24" width="146" height="50" rx="10" fill="#111C30" stroke="#3B82F6" stroke-width="2"/>
    <text x="489" y="47" fill="#F0F6FC">Checks</text>
    <text x="489" y="63" fill="#F0F6FC" font-size="10">URLs, locations</text>
    <path d="M562 49H588" stroke="#3B82F6" stroke-width="4"/>
    <path d="M588 37L608 49L588 61Z" fill="#3B82F6"/>

    <rect x="610" y="24" width="146" height="50" rx="10" fill="#161B22" stroke="#30363D" stroke-width="2"/>
    <text x="683" y="47" fill="#F0F6FC">Generate</text>
    <text x="683" y="63" fill="#F0F6FC" font-size="10">README, CSV, JSON</text>
    <path d="M756 49H782" stroke="#3B82F6" stroke-width="4"/>
    <path d="M782 37L802 49L782 61Z" fill="#3B82F6"/>

    <rect x="804" y="24" width="68" height="50" rx="10" fill="#102A1C" stroke="#238636" stroke-width="2"/>
    <text x="838" y="47" fill="#F0F6FC" font-size="14">Ready</text>
    <text x="838" y="63" fill="#F0F6FC" font-size="10">exports</text>

    <path d="M489 74V96" stroke="#F85149" stroke-width="4"/>
    <path d="M475 96L503 96L489 116Z" fill="#F85149"/>
    <rect x="416" y="118" width="146" height="36" rx="10" fill="#2D1619" stroke="#DA3633" stroke-width="2"/>
    <text x="489" y="141" fill="#F0F6FC" font-size="14">Output Blocked</text>
  </g>
</svg>
