<svg xmlns="http://www.w3.org/2000/svg" width="900" height="190" viewBox="0 0 900 190" role="img" aria-labelledby="title desc">
  <title id="title">CS Resource Hub data pipeline</title>
  <desc id="desc">Resource JSON is validated, checked for quality, and used to generate README, CSV, and site-ready JSON exports. Failed quality checks block output.</desc>
  <defs>
    <marker id="arrow" markerWidth="10" markerHeight="10" refX="8" refY="5" orient="auto">
      <path d="M0 0L10 5L0 10Z" fill="#3B82F6"/>
    </marker>
    <marker id="fail-arrow" markerWidth="8" markerHeight="8" refX="6.5" refY="4" orient="auto">
      <path d="M0 0L8 4L0 8Z" fill="#F85149"/>
    </marker>
  </defs>
  <rect width="900" height="190" rx="18" fill="#0D1117"/>
  <g font-family="Arial, Helvetica, sans-serif" font-size="18" font-weight="600" text-anchor="middle">
    <rect x="48" y="24" width="128" height="50" rx="10" fill="#161B22" stroke="#30363D" stroke-width="2"/>
    <text x="112" y="47" fill="#F0F6FC">Add Resource</text>
    <text x="112" y="63" fill="#F0F6FC" font-size="10">JSON in data/</text>
    <path d="M176 49H216" stroke="#3B82F6" stroke-width="4" marker-end="url(#arrow)"/>

    <rect x="224" y="24" width="144" height="50" rx="10" fill="#111C30" stroke="#3B82F6" stroke-width="2"/>
    <text x="296" y="47" fill="#F0F6FC">Validate</text>
    <text x="296" y="63" fill="#F0F6FC" font-size="10">schema + category</text>
    <path d="M368 49H408" stroke="#3B82F6" stroke-width="4" marker-end="url(#arrow)"/>

    <rect x="416" y="24" width="146" height="50" rx="10" fill="#111C30" stroke="#3B82F6" stroke-width="2"/>
    <text x="489" y="47" fill="#F0F6FC">Quality Checks</text>
    <text x="489" y="63" fill="#F0F6FC" font-size="10">URLs, tags, regions</text>
    <path d="M562 49H602" stroke="#3B82F6" stroke-width="4" marker-end="url(#arrow)"/>

    <rect x="610" y="24" width="146" height="50" rx="10" fill="#161B22" stroke="#30363D" stroke-width="2"/>
    <text x="683" y="47" fill="#F0F6FC">Generate</text>
    <text x="683" y="63" fill="#F0F6FC" font-size="10">README, CSV, JSON</text>
    <path d="M756 49H796" stroke="#3B82F6" stroke-width="4" marker-end="url(#arrow)"/>

    <rect x="804" y="24" width="68" height="50" rx="10" fill="#102A1C" stroke="#238636" stroke-width="2"/>
    <text x="838" y="47" fill="#F0F6FC" font-size="14">Ready</text>
    <text x="838" y="63" fill="#F0F6FC" font-size="10">exports</text>

    <path d="M489 74V104" stroke="#F85149" stroke-width="4" marker-end="url(#fail-arrow)"/>
    <rect x="416" y="118" width="146" height="36" rx="10" fill="#2D1619" stroke="#DA3633" stroke-width="2"/>
    <text x="489" y="141" fill="#F0F6FC" font-size="14">Output Blocked</text>
  </g>
</svg>
